<svg xmlns="http://www.w3.org/2000/svg" width="280" viewBox="0 0 367 120" fill="none">
<path d="M228.09 52.1296C224.662 52.1296 221.849 54.7792 221.586 58.1472C221.961 58.1776 222.322 58.2384 222.671 58.3296C222.843 55.48 225.2 53.2224 228.09 53.2224C230.98 53.2224 233.523 55.656 233.523 58.664C233.523 61.672 231.09 64.104 228.09 64.104C227.903 64.104 227.72 64.096 227.541 64.0768C227.15 64.0384 226.772 63.9552 226.408 63.8336C224.484 63.208 223.036 61.5328 222.727 59.4832C222.365 59.3664 221.985 59.28 221.592 59.2416C221.838 62.0288 223.828 64.3136 226.459 64.9904C226.812 65.08 227.172 65.1424 227.544 65.1712C227.723 65.1872 227.906 65.1952 228.088 65.1952C231.693 65.1952 234.611 62.2688 234.611 58.664C234.611 55.0592 231.693 52.1312 228.088 52.1312" fill="white"/>
<path d="M206.333 58.1696C206.079 54.7888 203.268 52.1296 199.826 52.1296C196.384 52.1296 193.305 55.0544 193.305 58.664C193.305 62.2736 196.226 65.1952 199.826 65.1952C200.024 65.1952 200.217 65.1872 200.404 65.1696C200.393 65.0064 200.385 64.8416 200.385 64.6736C200.385 64.4704 200.396 64.2704 200.412 64.0688C200.222 64.0896 200.026 64.1024 199.826 64.1024C196.828 64.1024 194.393 61.6656 194.393 58.664C194.393 55.6624 196.828 53.2224 199.826 53.2224C202.824 53.2224 205.087 55.4944 205.248 58.3568C205.251 58.4592 205.263 58.56 205.263 58.6656C205.263 58.9568 205.232 59.2384 205.189 59.5184C204.87 61.5376 203.442 63.1872 201.549 63.8224C201.503 64.1024 201.476 64.3872 201.476 64.6752C201.476 64.7808 201.484 64.8816 201.492 64.9808C204.099 64.296 206.072 62.0304 206.322 59.2656C206.343 59.0688 206.354 58.8672 206.354 58.6656C206.354 58.4976 206.348 58.3328 206.332 58.1712" fill="white"/>
<path d="M206.909 59.232C207.096 59.232 207.277 59.2416 207.459 59.2592C207.849 59.2992 208.23 59.3824 208.591 59.5008C210.517 60.128 211.962 61.8 212.275 63.8512C212.637 63.968 213.015 64.0496 213.406 64.0896C213.161 61.3056 211.172 59.024 208.538 58.3472C208.189 58.2544 207.825 58.1952 207.453 58.1648C207.276 58.1504 207.092 58.1392 206.909 58.1392C206.714 58.1392 206.524 58.1504 206.333 58.1664C206.346 58.3296 206.355 58.4928 206.355 58.6624C206.355 58.864 206.344 59.0656 206.323 59.264C206.52 59.2448 206.713 59.232 206.909 59.232Z" fill="white"/>
<path d="M212.327 65.0064C212.154 67.856 209.801 70.1152 206.909 70.1152C204.018 70.1152 201.652 67.84 201.492 64.9776C201.486 64.8784 201.476 64.776 201.476 64.672C201.476 64.3824 201.505 64.0992 201.55 63.8176C201.869 61.7968 203.294 60.1488 205.189 59.5152C205.232 59.2352 205.263 58.9536 205.263 58.6608C205.263 58.5552 205.255 58.456 205.248 58.3536C202.639 59.04 200.669 61.3056 200.412 64.0672C200.396 64.2672 200.385 64.4688 200.385 64.672C200.385 64.84 200.396 65.0048 200.404 65.168C200.658 68.5456 203.471 71.2096 206.908 71.2096C210.345 71.2096 213.148 68.5536 213.41 65.1872C213.038 65.1568 212.676 65.0944 212.325 65.0064" fill="white"/>
<path d="M213.956 64.12C213.771 64.12 213.587 64.1104 213.407 64.0912C213.018 64.0528 212.638 63.9696 212.276 63.8528C210.35 63.2256 208.902 61.5504 208.591 59.5008C208.231 59.384 207.849 59.3008 207.46 59.2592C207.704 62.0448 209.692 64.3296 212.325 65.0064C212.676 65.0944 213.038 65.1568 213.41 65.1888C213.592 65.2032 213.772 65.2112 213.954 65.2112C214.154 65.2112 214.348 65.2 214.543 65.1856C214.529 65.0096 214.519 64.8352 214.519 64.656C214.519 64.4624 214.529 64.2736 214.546 64.0848C214.352 64.1056 214.154 64.1184 213.954 64.1184" fill="white"/>
<path d="M220.457 58.1504C220.185 54.7888 217.38 52.1456 213.954 52.1456C210.529 52.1456 207.717 54.7968 207.452 58.1664C207.824 58.1952 208.186 58.256 208.537 58.3456C208.713 55.4944 211.065 53.2368 213.954 53.2368C216.844 53.2368 219.196 55.4912 219.372 58.3376C219.38 58.448 219.389 58.5616 219.389 58.6768C219.389 58.9536 219.36 59.2272 219.321 59.4944C219.013 61.5312 217.583 63.1936 215.679 63.8336C215.636 64.1024 215.611 64.3728 215.611 64.6544C215.611 64.7696 215.62 64.88 215.627 64.9904C218.245 64.3008 220.216 62.0192 220.45 59.2432C220.469 59.056 220.481 58.8656 220.481 58.6768C220.481 58.488 220.473 58.3232 220.457 58.1472" fill="white"/>
<path d="M221.045 59.2144C221.227 59.2144 221.412 59.2224 221.593 59.2416C221.985 59.2784 222.363 59.3648 222.727 59.4816C224.652 60.1072 226.099 61.784 226.408 63.8336C226.772 63.952 227.15 64.0352 227.541 64.0736C227.296 61.2864 225.307 59.0048 222.673 58.3264C222.322 58.2352 221.961 58.1744 221.586 58.144C221.408 58.1312 221.227 58.12 221.045 58.12C220.846 58.12 220.65 58.1312 220.457 58.1504C220.473 58.3264 220.481 58.4992 220.481 58.6784C220.481 58.8688 220.469 59.0576 220.45 59.2448C220.648 59.224 220.844 59.2128 221.045 59.2128" fill="white"/>
<path d="M226.459 64.9904C226.287 67.8368 223.932 70.0992 221.045 70.0992C218.159 70.0992 215.802 67.84 215.628 64.9952C215.62 64.8816 215.61 64.7696 215.61 64.6576C215.61 64.376 215.637 64.1072 215.681 63.8368C215.989 61.8 217.418 60.1376 219.322 59.4976C219.36 59.2304 219.39 58.9568 219.39 58.68C219.39 58.5648 219.379 58.4496 219.373 58.3408C216.758 59.0304 214.787 61.312 214.548 64.0864C214.53 64.2768 214.521 64.464 214.521 64.6576C214.521 64.8352 214.53 65.0112 214.544 65.1872C214.811 68.5472 217.618 71.1888 221.047 71.1888C224.476 71.1888 227.284 68.5376 227.546 65.1712C227.174 65.1408 226.813 65.0784 226.461 64.9888" fill="white"/>
<path d="M236.453 17.0624H191.304V48.7456H236.453V17.0624Z" fill="#008348"/>
<path d="M195.137 32.9216L213.878 20.8896L232.617 32.9216L213.878 44.9184L195.137 32.9216Z" fill="#FFF200"/>
<path d="M213.862 40.8015C211.76 40.8015 209.786 39.9808 208.305 38.488C206.82 36.9984 206.003 35.0063 206.003 32.8863C206.003 28.5407 209.526 25.0063 213.862 25.0063C215.974 25.0063 217.958 25.8271 219.445 27.3167C220.932 28.8015 221.754 30.7807 221.754 32.8863C221.754 34.9919 220.932 36.9984 219.445 38.488C217.961 39.9808 215.976 40.8015 213.862 40.8015Z" fill="#006BB6"/>
<path d="M213.76 31.1984C218.369 32.3296 221.281 35.16 221.423 35.3024C221.557 34.8752 221.656 34.432 221.72 33.976C218.385 31.1952 214.088 29.5072 209.431 29.5392C208.449 29.5392 207.529 29.6032 206.61 29.736C206.446 30.1184 206.309 30.5168 206.205 30.9296C206.424 30.8816 209.706 30.2048 213.76 31.1968" fill="white"/>
<path d="M191.251 17.0256V48.7456H236.453V17.0256H191.251ZM235.744 48.0352H191.959V17.7376H235.744V48.0352Z" fill="white"/>
<path d="M340.556 44.6192C340.258 44.6192 340.017 44.376 340.017 44.0784V28.4384H335.715V48.9312H351.043V44.6192H340.556ZM263.359 34.6416C263.359 31.2224 260.584 28.44 257.174 28.44H241.307V48.9328H257.174C260.584 48.9328 263.359 46.1504 263.359 42.7312C263.359 41.3776 262.933 40.0912 262.122 39.0112C261.978 38.8192 261.978 38.5568 262.122 38.3632C262.931 37.2848 263.359 35.9968 263.359 34.6432V34.6416ZM257.174 40.8432C258.213 40.8432 259.057 41.6912 259.057 42.7312C259.057 43.7712 258.213 44.6192 257.174 44.6192H246.148C245.851 44.6192 245.61 44.3776 245.61 44.0784V33.2928C245.61 32.9952 245.851 32.7552 246.148 32.7552H257.174C258.213 32.7552 259.057 33.6 259.057 34.6416C259.057 35.6832 258.213 36.5296 257.174 36.5296H247.761V40.8432H257.174ZM329.261 48.9312H333.564V28.4384H329.261V48.9312ZM321.463 36.5296H311.783C310.743 36.5296 309.899 35.6816 309.899 34.6416C309.899 33.6016 310.743 32.7552 311.783 32.7552H325.496V28.44H311.783C308.372 28.44 305.597 31.2208 305.597 34.6416C305.597 38.0624 308.372 40.8432 311.783 40.8432H321.463C322.501 40.8432 323.346 41.6912 323.346 42.7312C323.346 43.7712 322.501 44.6192 321.463 44.6192H308.731C308.538 44.6192 308.362 44.5168 308.267 44.3504L300.502 30.8672C300.451 30.7808 300.398 30.6928 300.344 30.6096L300.285 30.5264C300.247 30.472 300.209 30.4176 300.169 30.3632L300.095 30.2704C300.059 30.224 300.019 30.176 299.982 30.1312L299.897 30.0384C299.859 29.9952 299.819 29.952 299.778 29.9104L299.692 29.8224C299.648 29.7808 299.605 29.7408 299.562 29.7008L299.471 29.6224C299.423 29.5808 299.374 29.5408 299.325 29.4992L299.243 29.4352C299.165 29.3776 299.087 29.32 299.005 29.264C298.222 28.7392 297.289 28.4448 296.317 28.4448C296.087 28.4448 295.86 28.4624 295.635 28.4944C294.913 28.5968 294.228 28.8624 293.628 29.264C293.548 29.3184 293.468 29.376 293.39 29.4352L293.309 29.4992C293.259 29.5408 293.21 29.5808 293.161 29.6224L293.071 29.7008C293.028 29.7408 292.985 29.7808 292.942 29.8224L292.854 29.9104C292.814 29.952 292.774 29.9952 292.735 30.0384L292.652 30.1312C292.612 30.176 292.575 30.224 292.538 30.2704L292.465 30.3632C292.425 30.4176 292.385 30.4704 292.347 30.528L292.293 30.6096C292.235 30.6928 292.181 30.7808 292.13 30.8672L284.367 44.3488C284.271 44.5168 284.092 44.6192 283.901 44.6192C283.709 44.6192 283.531 44.5168 283.437 44.3488L281.798 41.5024C281.712 41.3536 281.702 41.1712 281.771 41.0128C281.839 40.856 281.981 40.7408 282.149 40.7056C284.981 40.0976 287.035 37.5472 287.035 34.64C287.035 31.2208 284.262 28.4384 280.85 28.4384H264.983V48.9312H269.285V33.2928C269.285 32.9936 269.526 32.7536 269.824 32.7536H280.85C281.889 32.7536 282.733 33.6 282.733 34.64C282.733 35.68 281.889 36.528 280.85 36.528H271.437V40.8416H276.138C276.33 40.8416 276.508 40.9456 276.604 41.112L281.107 48.9312H286.695L295.784 33.1488L295.856 33.024C295.95 32.856 296.128 32.7552 296.32 32.7552C296.511 32.7552 296.689 32.856 296.786 33.024L300.667 39.7648C300.761 39.9328 300.761 40.1376 300.667 40.3056C300.571 40.4736 300.392 40.5744 300.202 40.5744H293.99L291.507 44.8896H303.306C303.497 44.8896 303.674 44.9904 303.772 45.1584L305.945 48.9344H321.472C324.881 48.9344 327.657 46.152 327.657 42.7328C327.657 39.3136 324.881 36.5312 321.472 36.5312L321.463 36.5296Z" fill="white"/>
<path d="M273.478 21.5312H275.795V20.3824H273.478V18.7664H276.629V17.6256H272.184V24.4832H276.865V23.3216H273.478V21.5328V21.5312ZM265.535 18.7664H267.861V24.4816H269.158V18.7664H271.482V17.6256H265.535V18.7664ZM274.395 16.2672L275.034 17.112H276.106L274.973 15.5072H273.829L272.698 17.112H273.768L274.395 16.2672ZM285.211 18.4928C284.89 18.1696 284.512 17.912 284.079 17.7232C283.65 17.5344 283.181 17.4416 282.682 17.4416C282.182 17.4416 281.715 17.5344 281.279 17.7232C280.843 17.9136 280.464 18.1696 280.146 18.4928C279.827 18.8208 279.575 19.2016 279.39 19.64C279.205 20.0768 279.112 20.5488 279.112 21.048C279.112 21.5472 279.205 22.016 279.39 22.4576C279.576 22.8944 279.827 23.2784 280.153 23.608C280.473 23.9376 280.851 24.1952 281.284 24.3824C281.715 24.5728 282.182 24.6672 282.682 24.6672C283.181 24.6672 283.65 24.5728 284.079 24.3824C284.512 24.1936 284.89 23.9376 285.211 23.608C285.536 23.2784 285.788 22.896 285.973 22.4576C286.159 22.016 286.251 21.5456 286.251 21.048C286.251 20.5504 286.159 20.0768 285.973 19.64C285.787 19.2016 285.536 18.8192 285.211 18.4928ZM284.737 21.9424C284.636 22.2384 284.488 22.496 284.296 22.7168C284.102 22.9408 283.872 23.1152 283.598 23.2496C283.321 23.3792 283.018 23.4432 282.68 23.4432C282.342 23.4432 282.032 23.3808 281.759 23.2496C281.488 23.1168 281.257 22.9408 281.064 22.7168C280.872 22.4944 280.725 22.2384 280.623 21.9424C280.52 21.648 280.47 21.3392 280.47 21.0176C280.47 20.696 280.52 20.3776 280.623 20.0848C280.725 19.7952 280.874 19.5376 281.064 19.3216C281.258 19.1008 281.488 18.928 281.759 18.8032C282.032 18.6752 282.337 18.6112 282.68 18.6112C283.023 18.6112 283.321 18.6736 283.598 18.8032C283.872 18.9264 284.103 19.1008 284.296 19.3216C284.489 19.5392 284.636 19.7952 284.737 20.0848C284.841 20.3776 284.89 20.6896 284.89 21.0176C284.89 21.3456 284.841 21.648 284.737 21.9424ZM243.006 19.3376C243.194 19.1136 243.422 18.9376 243.689 18.8032C243.957 18.6688 244.258 18.6 244.595 18.6C245.034 18.6 245.398 18.696 245.69 18.888C245.983 19.0816 246.239 19.3328 246.459 19.6496L247.373 18.8368C247.236 18.6448 247.078 18.4656 246.901 18.2976C246.722 18.1296 246.518 17.984 246.288 17.8592C246.057 17.7392 245.801 17.6384 245.52 17.568C245.24 17.496 244.93 17.4624 244.595 17.4624C244.073 17.4624 243.599 17.5568 243.165 17.7488C242.733 17.9408 242.361 18.2 242.05 18.5296C241.736 18.8592 241.496 19.2416 241.324 19.68C241.153 20.12 241.065 20.592 241.065 21.0896C241.065 21.5872 241.153 22.0752 241.324 22.5072C241.498 22.9408 241.736 23.3152 242.045 23.6336C242.353 23.952 242.72 24.1984 243.145 24.376C243.569 24.5584 244.041 24.6448 244.555 24.6448C244.882 24.6448 245.197 24.6 245.492 24.5136C245.787 24.4224 246.058 24.3072 246.302 24.168C246.55 24.0272 246.764 23.8752 246.945 23.712C247.129 23.5472 247.269 23.384 247.373 23.2272L246.467 22.4464C246.387 22.528 246.293 22.6288 246.194 22.7392C246.093 22.8528 245.97 22.96 245.822 23.0624C245.677 23.1664 245.498 23.2528 245.288 23.3216C245.08 23.3904 244.828 23.4208 244.533 23.4208C244.209 23.4208 243.918 23.3616 243.663 23.2384C243.405 23.1136 243.186 22.9456 242.998 22.7328C242.811 22.5184 242.671 22.2704 242.572 21.984C242.473 21.6944 242.423 21.3856 242.423 21.056C242.423 20.7264 242.473 20.4128 242.572 20.1168C242.671 19.8192 242.816 19.5584 243.004 19.336L243.006 19.3376ZM253.721 18.4928C253.4 18.1696 253.022 17.912 252.589 17.7232C252.158 17.5344 251.691 17.4416 251.191 17.4416C250.692 17.4416 250.224 17.5344 249.789 17.7232C249.353 17.9136 248.973 18.1696 248.656 18.4928C248.337 18.8208 248.085 19.2016 247.9 19.64C247.715 20.0768 247.622 20.5488 247.622 21.048C247.622 21.5472 247.715 22.016 247.9 22.4576C248.086 22.8944 248.337 23.2784 248.662 23.608C248.983 23.9376 249.361 24.1952 249.794 24.3824C250.224 24.5728 250.692 24.6672 251.191 24.6672C251.691 24.6672 252.158 24.5728 252.589 24.3824C253.022 24.1936 253.4 23.9376 253.721 23.608C254.046 23.2784 254.298 22.896 254.483 22.4576C254.668 22.016 254.761 21.5456 254.761 21.048C254.761 20.5504 254.668 20.0768 254.483 19.64C254.297 19.2016 254.046 18.8192 253.721 18.4928ZM253.248 21.9424C253.148 22.2384 252.999 22.496 252.808 22.7168C252.613 22.9408 252.383 23.1152 252.109 23.2496C251.833 23.3792 251.53 23.4432 251.191 23.4432C250.853 23.4432 250.544 23.3808 250.271 23.2496C249.999 23.1168 249.768 22.9408 249.575 22.7168C249.382 22.4944 249.237 22.2384 249.135 21.9424C249.031 21.648 248.981 21.3392 248.981 21.0176C248.981 20.696 249.031 20.3776 249.135 20.0848C249.237 19.7952 249.384 19.5376 249.575 19.3216C249.77 19.1008 249.999 18.928 250.271 18.8032C250.544 18.6752 250.848 18.6112 251.191 18.6112C251.534 18.6112 251.833 18.6736 252.109 18.8032C252.383 18.9264 252.615 19.1008 252.808 19.3216C253.001 19.5392 253.148 19.7952 253.248 20.0848C253.352 20.3776 253.403 20.6896 253.403 21.0176C253.403 21.3456 253.352 21.648 253.248 21.9424ZM260.906 17.624L259.032 20.8624L257.129 17.624H255.924L255.594 24.4816H256.81L257.036 19.8048L258.693 22.5296H259.299L260.947 19.7328L261.174 24.4816H262.439L262.11 17.624H260.906ZM263.54 24.4816H264.837V17.624H263.54V24.4816ZM312.579 19.3376C312.768 19.1136 312.996 18.9376 313.262 18.8032C313.53 18.6688 313.832 18.6 314.169 18.6C314.607 18.6 314.971 18.696 315.265 18.888C315.557 19.0816 315.812 19.3328 316.032 19.6496L316.947 18.8368C316.809 18.6448 316.651 18.4656 316.474 18.2976C316.297 18.1296 316.091 17.984 315.862 17.8592C315.63 17.7392 315.375 17.6384 315.094 17.568C314.813 17.496 314.504 17.4624 314.169 17.4624C313.647 17.4624 313.173 17.5568 312.739 17.7488C312.307 17.9408 311.935 18.2 311.624 18.5296C311.309 18.8592 311.07 19.2416 310.898 19.68C310.727 20.12 310.639 20.592 310.639 21.0896C310.639 21.5872 310.727 22.0752 310.898 22.5072C311.071 22.9408 311.309 23.3152 311.619 23.6336C311.927 23.952 312.294 24.1984 312.718 24.376C313.143 24.5584 313.615 24.6448 314.129 24.6448C314.456 24.6448 314.77 24.6 315.065 24.5136C315.361 24.4224 315.632 24.3072 315.876 24.168C316.123 24.0272 316.337 23.8752 316.519 23.712C316.703 23.5472 316.846 23.384 316.947 23.2272L316.04 22.4464C315.961 22.528 315.866 22.6288 315.767 22.7392C315.667 22.8528 315.544 22.96 315.399 23.0624C315.25 23.1664 315.072 23.2528 314.861 23.3216C314.654 23.3904 314.402 23.4208 314.106 23.4208C313.782 23.4208 313.492 23.3616 313.237 23.2384C312.978 23.1136 312.76 22.9456 312.571 22.7328C312.385 22.5184 312.244 22.2704 312.145 21.984C312.046 21.6944 311.997 21.3856 311.997 21.056C311.997 20.7264 312.046 20.4128 312.145 20.1168C312.244 19.8192 312.389 19.5584 312.578 19.336L312.579 19.3376ZM308.427 24.4816H309.725V17.624H308.427V24.4816ZM323.294 18.4928C322.973 18.1696 322.595 17.912 322.163 17.7232C321.734 17.5344 321.265 17.4416 320.765 17.4416C320.266 17.4416 319.795 17.5344 319.362 17.7232C318.927 17.9136 318.547 18.1696 318.23 18.4928C317.91 18.8208 317.658 19.2016 317.473 19.64C317.288 20.0768 317.196 20.5488 317.196 21.048C317.196 21.5472 317.288 22.016 317.473 22.4576C317.66 22.8944 317.91 23.2784 318.236 23.608C318.557 23.9376 318.935 24.1952 319.367 24.3824C319.798 24.5728 320.266 24.6672 320.765 24.6672C321.265 24.6672 321.734 24.5728 322.163 24.3824C322.595 24.1936 322.973 23.9376 323.294 23.608C323.62 23.2784 323.872 22.896 324.057 22.4576C324.242 22.016 324.335 21.5456 324.335 21.048C324.335 20.5504 324.242 20.0768 324.057 19.64C323.87 19.2016 323.62 18.8192 323.294 18.4928ZM322.822 21.9424C322.721 22.2384 322.573 22.496 322.381 22.7168C322.187 22.9408 321.957 23.1152 321.683 23.2496C321.407 23.3792 321.103 23.4432 320.765 23.4432C320.427 23.4432 320.114 23.3808 319.844 23.2496C319.573 23.1168 319.342 22.9408 319.149 22.7168C318.957 22.4944 318.81 22.2384 318.708 21.9424C318.605 21.648 318.555 21.3392 318.555 21.0176C318.555 20.696 318.605 20.3776 318.708 20.0848C318.81 19.7952 318.959 19.5376 319.149 19.3216C319.343 19.1008 319.573 18.928 319.844 18.8032C320.114 18.6752 320.422 18.6112 320.765 18.6112C321.108 18.6112 321.407 18.6736 321.683 18.8032C321.957 18.9264 322.188 19.1008 322.381 19.3216C322.575 19.5392 322.721 19.7952 322.822 20.0848C322.926 20.3776 322.977 20.6896 322.977 21.0176C322.977 21.3456 322.926 21.648 322.822 21.9424ZM340.409 19.64C340.222 19.2016 339.972 18.8192 339.646 18.4928C339.326 18.1696 338.948 17.912 338.515 17.7232C338.086 17.5344 337.617 17.4416 337.117 17.4416C336.618 17.4416 336.147 17.5344 335.715 17.7232C335.279 17.9136 334.899 18.1696 334.582 18.4928C334.263 18.8208 334.011 19.2016 333.825 19.64C333.64 20.0768 333.548 20.5488 333.548 21.048C333.548 21.5472 333.64 22.016 333.825 22.4576C334.012 22.8944 334.263 23.2784 334.588 23.608C334.909 23.9376 335.287 24.1952 335.72 24.3824C336.149 24.5728 336.618 24.6672 337.117 24.6672C337.617 24.6672 338.086 24.5728 338.515 24.3824C338.948 24.1936 339.326 23.9376 339.646 23.608C339.972 23.2784 340.224 22.896 340.409 22.4576C340.594 22.016 340.687 21.5456 340.687 21.048C340.687 20.5504 340.594 20.0768 340.409 19.64ZM339.174 21.9424C339.074 22.2384 338.925 22.496 338.734 22.7168C338.539 22.9408 338.309 23.1152 338.035 23.2496C337.759 23.3792 337.456 23.4432 337.117 23.4432C336.779 23.4432 336.469 23.3808 336.197 23.2496C335.925 23.1168 335.694 22.9408 335.501 22.7168C335.308 22.4944 335.163 22.2384 335.061 21.9424C334.957 21.648 334.907 21.3392 334.907 21.0176C334.907 20.696 334.957 20.3776 335.061 20.0848C335.163 19.7952 335.309 19.5376 335.501 19.3216C335.696 19.1008 335.925 18.928 336.197 18.8032C336.469 18.6752 336.774 18.6112 337.117 18.6112C337.46 18.6112 337.759 18.6736 338.035 18.8032C338.309 18.9264 338.541 19.1008 338.734 19.3216C338.927 19.5392 339.074 19.7952 339.174 20.0848C339.278 20.3776 339.329 20.6896 339.329 21.0176C339.329 21.3456 339.278 21.648 339.174 21.9424ZM288.464 17.624H287.167V24.4816H291.849V23.328H288.464V17.624ZM332.042 18.456C331.719 18.1776 331.338 17.9664 330.889 17.8288C330.444 17.6944 329.954 17.624 329.42 17.624H326.857V24.4816H329.41C329.937 24.4816 330.425 24.4112 330.869 24.2688C331.314 24.1296 331.702 23.9152 332.029 23.632C332.353 23.3472 332.608 22.9936 332.788 22.5744C332.97 22.1536 333.063 21.656 333.063 21.0864C333.063 20.5168 332.972 19.9744 332.793 19.5344C332.614 19.0976 332.365 18.736 332.042 18.4544V18.456ZM331.087 22.7632C330.676 23.1408 330.077 23.3296 329.297 23.3296H328.155V18.7744H329.297C330.14 18.7744 330.752 18.9856 331.134 19.4016C331.513 19.8208 331.706 20.3904 331.706 21.1088C331.706 21.8272 331.497 22.3872 331.089 22.7632H331.087ZM292.589 17.112H293.669L294.844 15.5072H293.339L292.589 17.112ZM292.602 24.4816H293.899V17.624H292.602V24.4816ZM307.049 18.3904C306.87 18.1744 306.629 17.992 306.323 17.8448C306.018 17.6976 305.624 17.624 305.145 17.624H302.943V24.48H304.188V21.9296H305.227C305.493 21.9296 305.764 21.8896 306.037 21.808C306.313 21.7264 306.562 21.5952 306.779 21.4224C306.999 21.2464 307.176 21.0224 307.317 20.7488C307.451 20.4736 307.521 20.1456 307.521 19.7632C307.521 19.5552 307.488 19.3296 307.417 19.0832C307.349 18.8352 307.226 18.6048 307.049 18.3904ZM305.911 20.5552C305.716 20.7472 305.455 20.8416 305.126 20.8416H304.189V18.7152H305.126C305.434 18.7152 305.693 18.816 305.895 19.0176C306.104 19.2208 306.205 19.4832 306.205 19.8032C306.205 20.1232 306.109 20.3616 305.911 20.5552ZM300.307 17.624L298.436 20.8624L296.532 17.624H295.327L294.997 24.4816H296.213L296.439 19.8048L298.096 22.5296H298.702L300.35 19.7328L300.577 24.4816H301.842L301.514 17.624H300.307Z" fill="white"/>
<path d="M172.605 71.28H172.989V17.0688H172.605V71.28Z" fill="white"/>
<path d="M125.194 53.9856H131.554V28.5936H125.194V53.9856ZM106.437 27.5024V54.1104L112.796 54.0112V33.6448H120.345V28.5952H112.796C112.796 22.7072 118.012 22.2704 122.655 24.1664V19.1088C115.901 16.5328 106.436 18.472 106.436 27.5024H106.437ZM125.194 24.6464H131.554V19.4048H125.194V24.6464ZM145.808 48.936C143.779 48.936 142.764 47.7552 142.764 45.3984V33.6432H147.913V28.5936H142.066L141.101 24.6448H136.4V47.1776C136.4 51.7184 138.511 53.984 142.737 53.984H149.028V48.9344H145.807L145.808 48.936Z" fill="#FFB612"/>
<path fill-rule="evenodd" clip-rule="evenodd" d="M127.733 63.8704C117.17 63.8704 107.67 60.0576 101.104 53.992C106.69 62.8288 116.53 68.696 127.733 68.696C138.936 68.696 148.778 62.8272 154.366 53.9936C147.799 60.0576 138.298 63.8704 127.733 63.8704Z" fill="#FFB612"/>
<path d="M83.208 32.3952H79.9832V48.9376H84.151V37.8576C85.3749 36.4656 86.7631 35.7648 88.3141 35.7648V32.3936C86.6993 32.3936 85.1707 33.0992 83.7218 34.5024L83.208 32.3936V32.3952ZM24.4401 38.8544H21.7706C20.4622 38.8544 19.808 38.328 19.808 37.28C19.808 36.1232 20.9297 35.5488 23.1828 35.5488C25.4358 35.5488 27.3219 35.9136 29.1569 36.6512V33.1824C27.3219 32.5536 25.3704 32.2416 23.2945 32.2416C18.4038 32.2416 15.9561 33.9744 15.9561 37.4352C15.9561 40.896 17.6299 42.4816 20.9824 42.4816H23.971C25.1725 42.4816 25.7789 43.0032 25.7789 44.0576C25.7789 45.2128 24.8821 45.7888 23.0934 45.7888C20.6935 45.7888 18.5761 45.4208 16.7427 44.6848V48.1536C18.5761 48.7824 20.6409 49.0944 22.9354 49.0944C27.6075 49.0944 29.9404 47.3616 29.9404 43.8928C29.9404 40.424 28.1053 38.8544 24.4417 38.8544H24.4401ZM52.5332 32.3952C50.6902 32.3952 48.7148 33.1488 46.6133 34.664C45.7437 33.1488 44.2693 32.3952 42.1934 32.3952C40.3328 32.3952 38.4484 33.088 36.5559 34.4768L36.0693 32.3952H32.8444V48.9376H37.0139V37.9072C38.3 36.4816 39.602 35.7664 40.9232 35.7664C42.4519 35.7664 43.2178 36.7024 43.2178 38.5696V48.9392H47.3792V37.9088C48.7323 36.4832 50.0248 35.768 51.2631 35.768C52.8124 35.768 53.5847 36.688 53.5847 38.5216V48.9392H57.7526V38.6816C57.7526 34.488 56.0133 32.3952 52.5316 32.3952H52.5332ZM98.4337 35.704V32.3952H94.6042L93.9707 29.7168H90.8943V44.4784C90.8943 47.4544 92.2777 48.9376 95.0446 48.9376H98.4337V45.6304H97.0551C95.7259 45.6304 95.0605 44.856 95.0605 43.312V35.7024H98.4337V35.704ZM67.4765 32.3952C65.675 32.3952 63.8815 32.6576 62.1039 33.1792V36.4928C63.8831 35.9664 65.6766 35.7024 67.4765 35.7024C70.3343 35.7024 71.7672 36.4432 71.7672 37.9232V39.0096C70.647 38.8 69.3625 38.6992 67.9312 38.6992C63.1539 38.6992 60.7684 40.3936 60.7684 43.7856C60.7684 47.1776 62.9927 48.9376 67.4446 48.9376C69.0689 48.9376 70.596 48.5504 72.0289 47.7696L73.8208 48.9376H75.927V37.8432C75.927 34.2128 73.1123 32.3952 67.4749 32.3952H67.4765ZM71.7672 44.3408C70.5816 45.2016 69.1391 45.632 67.4446 45.632C65.75 45.632 64.9282 45.0032 64.9282 43.7392C64.9282 42.4752 65.9319 41.8528 67.9312 41.8528C69.4407 41.8528 70.7156 41.9552 71.7672 42.1648V44.344V44.3408Z" fill="white"/>
<path d="M329.776 93.2336L326.57 100.597H327.934L328.64 98.8928H332.203L332.911 100.597H334.295L331.079 93.2336H329.777H329.776ZM329.083 97.8192L330.417 94.5968L331.756 97.8192H329.083ZM113.252 91.664C112.769 91.1888 112.202 90.8192 111.553 90.5536C110.903 90.2896 110.19 90.1568 109.411 90.1568C108.633 90.1568 107.932 90.2896 107.278 90.5536C106.624 90.8176 106.054 91.1888 105.571 91.664C105.087 92.1392 104.712 92.6976 104.447 93.3408C104.182 93.9824 104.048 94.6864 104.048 95.4512C104.048 96.216 104.181 96.92 104.447 97.5616C104.712 98.2032 105.087 98.7632 105.571 99.2384C106.054 99.7136 106.624 100.083 107.278 100.349C107.932 100.614 108.649 100.746 109.426 100.746C110.203 100.746 110.903 100.613 111.553 100.349C112.202 100.085 112.769 99.7168 113.252 99.2464C113.736 98.776 114.111 98.2176 114.376 97.5696C114.64 96.9232 114.774 96.2176 114.774 95.4528C114.774 94.688 114.642 93.9856 114.376 93.3424C114.111 92.7008 113.736 92.1424 113.252 91.6656V91.664ZM112.647 96.8992C112.472 97.336 112.228 97.7184 111.915 98.0464C111.602 98.3744 111.232 98.6272 110.806 98.8032C110.38 98.9792 109.914 99.0672 109.411 99.0672C108.909 99.0672 108.444 98.9792 108.017 98.8032C107.589 98.6272 107.221 98.3744 106.908 98.0464C106.595 97.7184 106.351 97.3328 106.175 96.8928C106 96.4512 105.912 95.9712 105.912 95.4512C105.912 94.9312 106 94.4384 106.175 94.0032C106.351 93.5664 106.597 93.1856 106.916 92.856C107.233 92.528 107.604 92.2752 108.025 92.0992C108.446 91.9232 108.909 91.8352 109.411 91.8352C109.914 91.8352 110.378 91.9232 110.806 92.0992C111.232 92.2752 111.602 92.528 111.915 92.856C112.228 93.184 112.472 93.5664 112.647 94.0032C112.823 94.44 112.911 94.9216 112.911 95.4512C112.911 95.9808 112.823 96.464 112.647 96.8992ZM92.9683 90.304L88.4877 100.597H90.3945L91.3806 98.2144H96.3606L97.3499 100.597H99.2838L94.7889 90.304H92.9683ZM92.0013 96.7152L93.865 92.2112L95.7367 96.7152H92.0013ZM132.915 92.848C133.233 92.5248 133.608 92.2752 134.039 92.0976C134.47 91.9216 134.947 91.8336 135.468 91.8336C135.99 91.8336 136.474 91.9344 136.919 92.1344C137.364 92.336 137.768 92.6368 138.128 93.0384L139.324 91.8768C138.859 91.3088 138.29 90.88 137.616 90.5904C136.943 90.3008 136.199 90.1568 135.382 90.1568C134.615 90.1568 133.908 90.2864 133.263 90.5456C132.619 90.8048 132.054 91.1728 131.57 91.648C131.087 92.1232 130.712 92.6848 130.447 93.3312C130.182 93.9776 130.048 94.6848 130.048 95.448C130.048 96.2112 130.18 96.9184 130.447 97.5648C130.712 98.2112 131.085 98.7728 131.564 99.248C132.043 99.7232 132.607 100.091 133.257 100.35C133.906 100.61 134.61 100.741 135.37 100.741C136.194 100.741 136.943 100.594 137.616 100.299C138.29 100.005 138.858 99.5792 139.324 99.0192L138.128 97.8432C137.768 98.2544 137.366 98.5616 136.919 98.7616C136.474 98.9632 135.989 99.0624 135.468 99.0624C134.948 99.0624 134.471 98.9744 134.039 98.7984C133.606 98.6224 133.233 98.3712 132.915 98.048C132.598 97.7248 132.351 97.3424 132.175 96.9008C131.999 96.4592 131.912 95.9744 131.912 95.4448C131.912 94.9152 131.999 94.4304 132.175 93.9888C132.351 93.5472 132.596 93.1648 132.915 92.8416V92.848ZM339.56 96.9568C339.313 96.8096 339.039 96.6896 338.735 96.5984C338.434 96.5072 338.131 96.4256 337.824 96.3504C337.519 96.2768 337.242 96.2016 336.994 96.1248C336.747 96.048 336.546 95.9408 336.395 95.8032C336.241 95.6672 336.166 95.4864 336.166 95.2608C336.166 95.072 336.219 94.9024 336.324 94.7552C336.43 94.608 336.596 94.488 336.822 94.3968C337.049 94.3056 337.347 94.2608 337.713 94.2608C338.025 94.2608 338.351 94.3088 338.689 94.4032C339.027 94.4976 339.358 94.6432 339.677 94.84L340.095 93.7776C339.782 93.5664 339.417 93.4064 338.995 93.2944C338.574 93.1824 338.151 93.1264 337.724 93.1264C337.073 93.1264 336.535 93.2256 336.11 93.4256C335.686 93.6256 335.372 93.8928 335.164 94.2256C334.957 94.5584 334.853 94.9248 334.853 95.3248C334.853 95.7248 334.931 96.04 335.088 96.2928C335.244 96.5456 335.445 96.7472 335.692 96.8976C335.94 97.048 336.214 97.1712 336.517 97.2656C336.819 97.36 337.121 97.4432 337.424 97.512C337.725 97.5824 338 97.6576 338.249 97.7376C338.498 97.8176 338.699 97.9264 338.853 98.064C339.01 98.2 339.088 98.3808 339.088 98.6064C339.088 98.7888 339.034 98.952 338.925 99.096C338.817 99.24 338.648 99.3536 338.416 99.4384C338.185 99.5232 337.883 99.5648 337.51 99.5648C337.069 99.5648 336.639 99.488 336.217 99.3328C335.796 99.1792 335.444 98.9856 335.159 98.7536L334.702 99.816C335 100.075 335.404 100.288 335.913 100.453C336.422 100.618 336.955 100.699 337.51 100.699C338.161 100.699 338.7 100.6 339.128 100.4C339.556 100.2 339.873 99.9344 340.079 99.6C340.286 99.2672 340.39 98.904 340.39 98.5104C340.39 98.1168 340.313 97.8048 340.16 97.5536C340.007 97.3008 339.808 97.1008 339.56 96.9536V96.9568ZM116.879 100.597H118.728V96.656H123.536V95.0384H118.728V91.9072H124.147V90.304H116.879V100.597ZM141.245 100.597H143.094V90.304H141.245V100.597ZM126.081 100.597H127.931V90.304H126.081V100.597ZM31.0171 92.848C31.3346 92.5248 31.7096 92.2752 32.1404 92.0976C32.5712 91.9216 33.0483 91.8336 33.5701 91.8336C34.0919 91.8336 34.5754 91.9344 35.0206 92.1344C35.4657 92.336 35.8694 92.6368 36.2301 93.0384L37.4252 91.8768C36.9609 91.3088 36.3912 90.88 35.7179 90.5904C35.0445 90.3008 34.3009 90.1568 33.4839 90.1568C32.7164 90.1568 32.0096 90.2864 31.3649 90.5456C30.7203 90.8048 30.1554 91.1728 29.6719 91.648C29.1884 92.1232 28.8135 92.6848 28.5486 93.3312C28.2837 93.9776 28.1497 94.6848 28.1497 95.448C28.1497 96.2112 28.2821 96.9184 28.5486 97.5648C28.8135 98.2112 29.1869 98.7728 29.6655 99.248C30.1442 99.7232 30.7091 100.091 31.3585 100.35C32.008 100.61 32.7116 100.741 33.4712 100.741C34.2961 100.741 35.0445 100.594 35.7179 100.299C36.3912 100.005 36.9593 99.5792 37.4252 99.0192L36.2301 97.8432C35.8694 98.2544 35.4673 98.5616 35.0206 98.7616C34.5754 98.9632 34.0903 99.0624 33.5701 99.0624C33.0499 99.0624 32.5728 98.9744 32.1404 98.7984C31.708 98.6224 31.3346 98.3712 31.0171 98.048C30.6995 97.7248 30.4522 97.3424 30.2767 96.9008C30.1012 96.4592 30.0134 95.9744 30.0134 95.4448C30.0134 94.9152 30.1012 94.4304 30.2767 93.9888C30.4522 93.5472 30.6979 93.1648 31.0171 92.8416V92.848ZM85.2166 100.597H87.0659V90.304H85.2166V100.597ZM346.474 99.44V93.2336H345.151V100.597H350.199V99.44H346.474ZM148.996 90.304L144.516 100.597H146.423L147.409 98.2144H152.389L153.378 100.597H155.312L150.817 90.304H148.996ZM148.028 96.7152L149.892 92.2112L151.763 96.7152H148.028ZM227.187 91.8512L228.082 92.6336H229.13L227.766 91.192H226.606L225.241 92.6336H226.29L227.185 91.8512H227.187ZM297.252 93.696C296.668 93.3872 295.989 93.2336 295.216 93.2336H292.101V100.597H295.216C295.989 100.597 296.668 100.443 297.252 100.134C297.836 99.8256 298.289 99.3968 298.616 98.8464C298.941 98.296 299.104 97.6528 299.104 96.9152C299.104 96.1776 298.941 95.5264 298.616 94.9792C298.29 94.432 297.836 94.0048 297.252 93.696ZM297.449 98.24C297.236 98.6192 296.934 98.9136 296.543 99.1232C296.152 99.3344 295.689 99.4384 295.153 99.4384H293.424V94.3888H295.153C295.689 94.3888 296.152 94.4944 296.543 94.704C296.932 94.9136 297.236 95.208 297.449 95.5824C297.663 95.9568 297.77 96.4016 297.77 96.9136C297.77 97.4256 297.663 97.8608 297.449 98.24ZM42.2042 90.304L37.7236 100.597H39.6304L40.6165 98.2144H45.5965L46.5858 100.597H48.5198L44.0248 90.304H42.2042ZM41.2356 96.7152L43.0993 92.2112L44.971 96.7152H41.2356ZM63.6673 96.1568H68.475V94.584H63.6673V91.9072H69.0861V90.304H61.8179V100.597H69.2856V98.9936H63.6673V96.1552V96.1568ZM80.8509 90.304L76.9639 97.1248L73.013 90.304H71.4908V100.597H73.254V93.8672L76.5251 99.4208H77.35L80.6227 93.7776L80.6355 100.597H82.3843L82.3699 90.304H80.8477H80.8509ZM57.1251 90.952C56.3097 90.52 55.3619 90.3056 54.2801 90.3056H49.9271V100.598H54.2801C55.3603 100.598 56.3097 100.382 57.1251 99.952C57.9405 99.52 58.5756 98.92 59.0303 98.1504C59.4851 97.3808 59.7133 96.4816 59.7133 95.4528C59.7133 94.424 59.4851 93.512 59.0303 92.7472C58.5756 91.9824 57.9405 91.3856 57.1251 90.9536V90.952ZM57.4028 97.304C57.1044 97.8336 56.6815 98.2448 56.1374 98.5392C55.5917 98.8336 54.9455 98.9808 54.1955 98.9808H51.7781V91.9232H54.1955C54.9439 91.9232 55.5917 92.0704 56.1374 92.3648C56.6831 92.6592 57.1044 93.0688 57.4028 93.592C57.7011 94.1168 57.8511 94.736 57.8511 95.4512C57.8511 96.1664 57.7011 96.7744 57.4028 97.304ZM341.804 100.597H343.127V93.2336H341.804V100.597ZM21.2804 90.304L16.7998 100.597H18.7066L19.6927 98.2144H24.6728L25.6621 100.597H27.596L23.101 90.304H21.2804ZM20.3134 96.7152L22.1772 92.2112L24.0489 96.7152H20.3134ZM249.076 92.6336H250.175L251.946 91.192H250.45L249.076 92.6336ZM240.477 94.2064C240.13 93.8656 239.725 93.6016 239.261 93.4128C238.796 93.224 238.286 93.1296 237.729 93.1296C237.172 93.1296 236.671 93.224 236.202 93.4128C235.734 93.6016 235.328 93.8672 234.981 94.2064C234.635 94.5472 234.367 94.9456 234.177 95.4064C233.987 95.8656 233.891 96.3696 233.891 96.9152C233.891 97.4608 233.986 97.9664 234.177 98.4256C234.367 98.8848 234.635 99.2848 234.981 99.6256C235.328 99.9664 235.734 100.23 236.202 100.419C236.669 100.608 237.182 100.704 237.739 100.704C238.295 100.704 238.795 100.61 239.259 100.419C239.724 100.23 240.129 99.9664 240.475 99.6304C240.821 99.2944 241.089 98.8944 241.279 98.4304C241.469 97.968 241.565 97.4624 241.565 96.9152C241.565 96.368 241.469 95.8656 241.279 95.4064C241.089 94.9472 240.821 94.5472 240.475 94.2064H240.477ZM240.044 97.952C239.918 98.264 239.744 98.5376 239.521 98.7728C239.298 99.008 239.033 99.1888 238.728 99.3152C238.423 99.4416 238.09 99.504 237.731 99.504C237.372 99.504 237.038 99.4416 236.733 99.3152C236.429 99.1888 236.164 99.008 235.94 98.7728C235.717 98.5376 235.541 98.2624 235.417 97.9472C235.291 97.632 235.229 97.288 235.229 96.9168C235.229 96.5456 235.291 96.192 235.417 95.88C235.543 95.568 235.718 95.2944 235.947 95.0592C236.173 94.824 236.438 94.6432 236.74 94.5168C237.041 94.3904 237.372 94.328 237.732 94.328C238.093 94.328 238.425 94.3904 238.729 94.5168C239.034 94.6432 239.299 94.824 239.522 95.0592C239.746 95.2944 239.921 95.568 240.046 95.88C240.172 96.192 240.234 96.5376 240.234 96.9168C240.234 97.296 240.172 97.6416 240.046 97.9536L240.044 97.952ZM266.992 93.5488C266.54 93.3376 265.999 93.2336 265.369 93.2336H262.438V100.597H263.76V98.472H265.369C266.001 98.472 266.54 98.3664 266.992 98.1568C267.443 97.9456 267.791 97.6448 268.035 97.2528C268.279 96.8608 268.402 96.3936 268.402 95.8528C268.402 95.312 268.279 94.8464 268.035 94.4544C267.791 94.0624 267.443 93.76 266.992 93.5504V93.5488ZM266.626 96.9312C266.331 97.1872 265.892 97.3152 265.308 97.3152H263.762V94.3904H265.308C265.892 94.3904 266.331 94.5168 266.626 94.7696C266.921 95.0224 267.068 95.384 267.068 95.8528C267.068 96.3216 266.921 96.6752 266.626 96.9312ZM244.396 93.2336H243.073V100.597H248.12V99.44H244.396V93.2336ZM249.27 100.597H250.593V93.2336H249.27V100.597ZM259.313 93.2336L256.532 98.1136L253.705 93.2336H252.616V100.597H253.879V95.7808L256.219 99.7552H256.81L259.151 95.7184L259.16 100.597H260.411L260.402 93.2336H259.313ZM306.685 94.2064C306.339 93.8656 305.934 93.6016 305.469 93.4128C305.005 93.224 304.494 93.1296 303.937 93.1296C303.38 93.1296 302.879 93.224 302.41 93.4128C301.943 93.6016 301.536 93.8672 301.19 94.2064C300.843 94.5472 300.575 94.9456 300.385 95.4064C300.196 95.8656 300.1 96.3696 300.1 96.9152C300.1 97.4608 300.194 97.9664 300.385 98.4256C300.575 98.8848 300.843 99.2848 301.19 99.6256C301.536 99.9664 301.943 100.23 302.41 100.419C302.878 100.608 303.39 100.704 303.947 100.704C304.504 100.704 305.003 100.61 305.468 100.419C305.932 100.23 306.337 99.9664 306.683 99.6304C307.03 99.2944 307.298 98.8944 307.488 98.4304C307.678 97.968 307.773 97.4624 307.773 96.9152C307.773 96.368 307.678 95.8656 307.488 95.4064C307.298 94.9472 307.03 94.5472 306.683 94.2064H306.685ZM306.253 97.952C306.127 98.264 305.953 98.5376 305.729 98.7728C305.506 99.008 305.241 99.1888 304.936 99.3152C304.631 99.4416 304.298 99.504 303.939 99.504C303.58 99.504 303.246 99.4416 302.942 99.3152C302.637 99.1888 302.372 99.008 302.149 98.7728C301.925 98.5376 301.75 98.2624 301.625 97.9472C301.499 97.632 301.437 97.288 301.437 96.9168C301.437 96.5456 301.499 96.192 301.625 95.88C301.751 95.568 301.927 95.2944 302.155 95.0592C302.382 94.824 302.646 94.6432 302.948 94.5168C303.25 94.3904 303.58 94.328 303.941 94.328C304.301 94.328 304.633 94.3904 304.938 94.5168C305.243 94.6432 305.508 94.824 305.731 95.0592C305.954 95.2944 306.13 95.568 306.254 95.88C306.38 96.192 306.443 96.5376 306.443 96.9168C306.443 97.296 306.38 97.6416 306.254 97.9536L306.253 97.952ZM269.826 100.597H271.148V93.2336H269.826V100.597ZM286.597 94.2064C286.251 93.8656 285.846 93.6016 285.382 93.4128C284.917 93.224 284.407 93.1296 283.85 93.1296C283.293 93.1296 282.792 93.224 282.323 93.4128C281.855 93.6016 281.448 93.8672 281.102 94.2064C280.756 94.5472 280.488 94.9456 280.298 95.4064C280.108 95.8656 280.012 96.3696 280.012 96.9152C280.012 97.4608 280.106 97.9664 280.298 98.4256C280.488 98.8848 280.756 99.2848 281.102 99.6256C281.448 99.9664 281.855 100.23 282.323 100.419C282.79 100.608 283.302 100.704 283.859 100.704C284.416 100.704 284.916 100.61 285.38 100.419C285.844 100.23 286.25 99.9664 286.596 99.6304C286.942 99.2944 287.21 98.8944 287.4 98.4304C287.59 97.968 287.686 97.4624 287.686 96.9152C287.686 96.368 287.59 95.8656 287.4 95.4064C287.21 94.9472 286.942 94.5472 286.596 94.2064H286.597ZM286.165 97.952C286.039 98.264 285.865 98.5376 285.642 98.7728C285.418 99.008 285.153 99.1888 284.849 99.3152C284.544 99.4416 284.21 99.504 283.851 99.504C283.492 99.504 283.159 99.4416 282.854 99.3152C282.549 99.1888 282.284 99.008 282.061 98.7728C281.838 98.5376 281.662 98.2624 281.538 97.9472C281.412 97.632 281.349 97.288 281.349 96.9168C281.349 96.5456 281.412 96.192 281.538 95.88C281.664 95.568 281.839 95.2944 282.067 95.0592C282.294 94.824 282.559 94.6432 282.86 94.5168C283.162 94.3904 283.492 94.328 283.853 94.328C284.214 94.328 284.545 94.3904 284.85 94.5168C285.155 94.6432 285.42 94.824 285.643 95.0592C285.867 95.2944 286.042 95.568 286.167 95.88C286.293 96.192 286.355 96.5376 286.355 96.9168C286.355 97.296 286.293 97.6416 286.167 97.9536L286.165 97.952ZM274.716 95.0528C274.943 94.8208 275.211 94.6432 275.52 94.5168C275.83 94.3904 276.17 94.328 276.543 94.328C276.917 94.328 277.263 94.4 277.58 94.544C277.9 94.688 278.187 94.904 278.445 95.1904L279.301 94.36C278.969 93.9536 278.562 93.6464 278.08 93.44C277.598 93.2336 277.065 93.1296 276.483 93.1296C275.934 93.1296 275.428 93.2224 274.967 93.408C274.506 93.5936 274.102 93.8576 273.756 94.1968C273.409 94.5376 273.141 94.9392 272.951 95.4016C272.762 95.864 272.666 96.3696 272.666 96.9168C272.666 97.464 272.76 97.9696 272.951 98.432C273.141 98.8944 273.408 99.296 273.751 99.6368C274.094 99.9776 274.498 100.24 274.962 100.426C275.426 100.611 275.93 100.704 276.473 100.704C277.063 100.704 277.6 100.598 278.081 100.389C278.563 100.179 278.97 99.8736 279.302 99.4736L278.447 98.632C278.188 98.9264 277.901 99.1456 277.582 99.2896C277.263 99.4336 276.917 99.5056 276.545 99.5056C276.173 99.5056 275.83 99.4432 275.522 99.3168C275.214 99.1904 274.946 99.0112 274.718 98.7808C274.491 98.5488 274.314 98.2752 274.188 97.96C274.062 97.6448 274 97.2976 274 96.9184C274 96.5392 274.062 96.192 274.188 95.8768C274.314 95.5616 274.49 95.288 274.718 95.056L274.716 95.0528ZM174.219 93.696C173.635 93.3872 172.957 93.2336 172.183 93.2336H169.068V100.597H172.183C172.957 100.597 173.635 100.443 174.219 100.134C174.803 99.8256 175.256 99.3968 175.583 98.8464C175.909 98.296 176.071 97.6528 176.071 96.9152C176.071 96.1776 175.909 95.5264 175.583 94.9792C175.258 94.432 174.803 94.0048 174.219 93.696ZM174.417 98.24C174.203 98.6192 173.901 98.9136 173.51 99.1232C173.119 99.3344 172.657 99.4384 172.121 99.4384H170.391V94.3888H172.121C172.657 94.3888 173.119 94.4944 173.51 94.704C173.9 94.9136 174.203 95.208 174.417 95.5824C174.631 95.9568 174.737 96.4016 174.737 96.9136C174.737 97.4256 174.631 97.8608 174.417 98.24ZM225.894 97.4208H229.334V96.2944H225.894V94.3792H229.771V93.232H224.571V100.595H229.913V99.448H225.894V97.4176V97.4208ZM183.652 94.2064C183.306 93.8656 182.901 93.6016 182.436 93.4128C181.972 93.224 181.462 93.1296 180.905 93.1296C180.348 93.1296 179.847 93.224 179.378 93.4128C178.91 93.6016 178.503 93.8672 178.157 94.2064C177.811 94.5472 177.543 94.9456 177.353 95.4064C177.163 95.8656 177.067 96.3696 177.067 96.9152C177.067 97.4608 177.161 97.9664 177.353 98.4256C177.543 98.8848 177.811 99.2848 178.157 99.6256C178.503 99.9664 178.91 100.23 179.378 100.419C179.845 100.608 180.357 100.704 180.914 100.704C181.471 100.704 181.971 100.61 182.435 100.419C182.899 100.23 183.304 99.9664 183.651 99.6304C183.997 99.2944 184.265 98.8944 184.455 98.4304C184.645 97.968 184.741 97.4624 184.741 96.9152C184.741 96.368 184.645 95.8656 184.455 95.4064C184.265 94.9472 183.997 94.5472 183.651 94.2064H183.652ZM183.22 97.952C183.094 98.264 182.92 98.5376 182.697 98.7728C182.473 99.008 182.208 99.1888 181.904 99.3152C181.599 99.4416 181.265 99.504 180.906 99.504C180.547 99.504 180.214 99.4416 179.909 99.3152C179.604 99.1888 179.339 99.008 179.116 98.7728C178.893 98.5376 178.717 98.2624 178.593 97.9472C178.466 97.632 178.404 97.288 178.404 96.9168C178.404 96.5456 178.466 96.192 178.593 95.88C178.719 95.568 178.894 95.2944 179.122 95.0592C179.349 94.824 179.614 94.6432 179.915 94.5168C180.217 94.3904 180.547 94.328 180.908 94.328C181.268 94.328 181.6 94.3904 181.905 94.5168C182.21 94.6432 182.475 94.824 182.698 95.0592C182.922 95.2944 183.097 95.568 183.222 95.88C183.348 96.192 183.41 96.5376 183.41 96.9168C183.41 97.296 183.348 97.6416 183.222 97.9536L183.22 97.952ZM324.59 98.1408C325.041 97.9344 325.389 97.6352 325.633 97.2464C325.878 96.8576 326 96.392 326 95.8528C326 95.3136 325.878 94.8464 325.633 94.4544C325.389 94.0624 325.041 93.76 324.59 93.5504C324.138 93.3392 323.597 93.2352 322.967 93.2352H320.036V100.598H321.359V98.4528H322.967C323.063 98.4528 323.154 98.4496 323.245 98.4448L324.697 100.598H326.122L324.486 98.1856C324.521 98.1712 324.556 98.1568 324.59 98.1424V98.1408ZM324.224 96.936C323.929 97.1952 323.49 97.3248 322.906 97.3248H321.36V94.3904H322.906C323.49 94.3904 323.929 94.5168 324.224 94.7696C324.52 95.0224 324.666 95.384 324.666 95.8528C324.666 96.3216 324.52 96.6768 324.224 96.936ZM317.483 96.8672C317.401 96.8288 317.315 96.7952 317.229 96.7664C317.502 96.6176 317.724 96.4144 317.89 96.152C318.067 95.8752 318.155 95.5408 318.155 95.1472C318.155 94.5648 317.931 94.1008 317.483 93.7536C317.034 93.4064 316.383 93.2336 315.528 93.2336H312.19V100.597H315.731C316.653 100.597 317.349 100.422 317.816 100.07C318.284 99.72 318.518 99.2288 318.518 98.5968C318.518 98.1696 318.426 97.8112 318.239 97.5232C318.053 97.2352 317.8 97.016 317.481 96.8656L317.483 96.8672ZM313.513 94.3056H315.385C315.846 94.3056 316.2 94.3904 316.449 94.5584C316.696 94.7264 316.821 94.9824 316.821 95.3264C316.821 95.6704 316.696 95.9152 316.449 96.0832C316.202 96.2512 315.847 96.336 315.385 96.336H313.513V94.3056ZM316.79 99.272C316.525 99.44 316.146 99.5248 315.651 99.5248H313.514V97.4H315.651C316.146 97.4 316.527 97.4864 316.79 97.6576C317.055 97.8288 317.188 98.0976 317.188 98.4624C317.188 98.8272 317.055 99.104 316.79 99.272ZM158.569 90.304H156.719V100.597H163.774V98.9792H158.567V90.304H158.569ZM190.699 95.0528C190.925 94.8208 191.193 94.6432 191.503 94.5168C191.812 94.3904 192.152 94.328 192.526 94.328C192.899 94.328 193.245 94.4 193.563 94.544C193.882 94.688 194.169 94.904 194.428 95.1904L195.283 94.36C194.951 93.9536 194.544 93.6464 194.062 93.44C193.58 93.2336 193.048 93.1296 192.465 93.1296C191.916 93.1296 191.41 93.2224 190.949 93.408C190.488 93.5936 190.084 93.8576 189.738 94.1968C189.392 94.5376 189.124 94.9392 188.934 95.4016C188.744 95.864 188.648 96.3696 188.648 96.9168C188.648 97.464 188.742 97.9696 188.934 98.432C189.124 98.8944 189.39 99.296 189.733 99.6368C190.076 99.9776 190.48 100.24 190.944 100.426C191.409 100.611 191.913 100.704 192.456 100.704C193.046 100.704 193.582 100.598 194.064 100.389C194.546 100.179 194.953 99.8736 195.285 99.4736L194.429 98.632C194.171 98.9264 193.884 99.1456 193.565 99.2896C193.245 99.4336 192.899 99.5056 192.527 99.5056C192.156 99.5056 191.812 99.4432 191.505 99.3168C191.197 99.1904 190.929 99.0112 190.7 98.7808C190.474 98.5488 190.297 98.2752 190.171 97.96C190.045 97.6448 189.982 97.2976 189.982 96.9184C189.982 96.5392 190.045 96.192 190.171 95.8768C190.297 95.5616 190.472 95.288 190.7 95.056L190.699 95.0528ZM202.58 94.2064C202.234 93.8656 201.828 93.6016 201.364 93.4128C200.9 93.224 200.389 93.1296 199.832 93.1296C199.275 93.1296 198.774 93.224 198.305 93.4128C197.838 93.6016 197.431 93.8672 197.085 94.2064C196.738 94.5472 196.47 94.9456 196.28 95.4064C196.09 95.8656 195.995 96.3696 195.995 96.9152C195.995 97.4608 196.089 97.9664 196.28 98.4256C196.47 98.8848 196.738 99.2848 197.085 99.6256C197.431 99.9664 197.838 100.23 198.305 100.419C198.773 100.608 199.285 100.704 199.842 100.704C200.399 100.704 200.898 100.61 201.362 100.419C201.827 100.23 202.232 99.9664 202.578 99.6304C202.925 99.2944 203.193 98.8944 203.383 98.4304C203.572 97.968 203.668 97.4624 203.668 96.9152C203.668 96.368 203.572 95.8656 203.383 95.4064C203.193 94.9472 202.925 94.5472 202.578 94.2064H202.58ZM202.148 97.952C202.021 98.264 201.848 98.5376 201.624 98.7728C201.401 99.008 201.136 99.1888 200.831 99.3152C200.526 99.4416 200.193 99.504 199.834 99.504C199.475 99.504 199.141 99.4416 198.837 99.3152C198.532 99.1888 198.267 99.008 198.044 98.7728C197.82 98.5376 197.645 98.2624 197.52 97.9472C197.394 97.632 197.332 97.288 197.332 96.9168C197.332 96.5456 197.394 96.192 197.52 95.88C197.646 95.568 197.822 95.2944 198.05 95.0592C198.276 94.824 198.541 94.6432 198.843 94.5168C199.145 94.3904 199.475 94.328 199.835 94.328C200.196 94.328 200.528 94.3904 200.833 94.5168C201.137 94.6432 201.402 94.824 201.626 95.0592C201.849 95.2944 202.025 95.568 202.149 95.88C202.275 96.192 202.337 96.5376 202.337 96.9168C202.337 97.296 202.275 97.6416 202.149 97.9536L202.148 97.952ZM214.996 100.597H216.319V93.2336H214.996V100.597ZM217.428 94.3904H219.789V100.597H221.112V94.3904H223.473V93.2336H217.429V94.3904H217.428ZM211.871 93.2336L209.09 98.1136L206.263 93.2336H205.174V100.597H206.437V95.7808L208.777 99.7552H209.368L211.709 95.7184L211.718 100.597H212.969L212.96 93.2336H211.871Z" fill="white"/>
</svg>